<mxfile host="app.diagrams.net" modified="2023-12-14T23:16:28.645Z" agent="Mozilla/5.0 (Windows NT 10.0; Win64; x64) AppleWebKit/537.36 (KHTML, like Gecko) Chrome/120.0.0.0 Safari/537.36" etag="cBWSCXM2DLXr1IUQ9vcy" version="22.1.9" type="github">
  <diagram name="Page-1" id="MvZi6WjR5LI27vXb7WO2">
    <mxGraphModel dx="2420" dy="820" grid="1" gridSize="10" guides="1" tooltips="1" connect="1" arrows="1" fold="1" page="1" pageScale="1" pageWidth="827" pageHeight="1169" math="0" shadow="0">
      <root>
        <mxCell id="0" />
        <mxCell id="1" parent="0" />
        <mxCell id="er851UC71g-c0nVrdtV7-15" value="DMZ" style="rounded=0;whiteSpace=wrap;html=1;verticalAlign=top;" parent="1" vertex="1">
          <mxGeometry x="-70" y="260" width="200.5" height="170" as="geometry" />
        </mxCell>
        <mxCell id="er851UC71g-c0nVrdtV7-10" style="edgeStyle=orthogonalEdgeStyle;rounded=0;orthogonalLoop=1;jettySize=auto;html=1;entryX=1;entryY=0.5;entryDx=0;entryDy=0;endArrow=none;endFill=0;" parent="1" source="er851UC71g-c0nVrdtV7-1" target="er851UC71g-c0nVrdtV7-9" edge="1">
          <mxGeometry relative="1" as="geometry">
            <Array as="points">
              <mxPoint x="389" y="355" />
            </Array>
          </mxGeometry>
        </mxCell>
        <mxCell id="er851UC71g-c0nVrdtV7-1" value="" style="sketch=0;points=[[0.5,0,0],[1,0.5,0],[0.5,1,0],[0,0.5,0],[0.145,0.145,0],[0.8555,0.145,0],[0.855,0.8555,0],[0.145,0.855,0]];verticalLabelPosition=bottom;html=1;verticalAlign=top;aspect=fixed;align=center;pointerEvents=1;shape=mxgraph.cisco19.rect;prIcon=router_with_firewall;fillColor=#FAFAFA;strokeColor=#005073;" parent="1" vertex="1">
          <mxGeometry x="364" y="210" width="50" height="50" as="geometry" />
        </mxCell>
        <mxCell id="er851UC71g-c0nVrdtV7-2" value="Pfsense ; Routeur / Firewall" style="text;html=1;align=center;verticalAlign=middle;resizable=0;points=[];autosize=1;strokeColor=none;fillColor=none;" parent="1" vertex="1">
          <mxGeometry x="310" y="177" width="170" height="30" as="geometry" />
        </mxCell>
        <mxCell id="er851UC71g-c0nVrdtV7-3" value="" style="outlineConnect=0;dashed=0;verticalLabelPosition=bottom;verticalAlign=top;align=center;html=1;shape=mxgraph.aws3.internet_3;fillColor=#D2D3D3;gradientColor=none;" parent="1" vertex="1">
          <mxGeometry x="160" y="156" width="79.5" height="54" as="geometry" />
        </mxCell>
        <mxCell id="er851UC71g-c0nVrdtV7-5" style="edgeStyle=orthogonalEdgeStyle;rounded=0;orthogonalLoop=1;jettySize=auto;html=1;entryX=0;entryY=0.5;entryDx=0;entryDy=0;entryPerimeter=0;" parent="1" source="er851UC71g-c0nVrdtV7-3" target="er851UC71g-c0nVrdtV7-1" edge="1">
          <mxGeometry relative="1" as="geometry">
            <Array as="points">
              <mxPoint x="200" y="235" />
            </Array>
          </mxGeometry>
        </mxCell>
        <mxCell id="er851UC71g-c0nVrdtV7-6" value="IP externe&lt;br&gt;DNS externe" style="text;html=1;align=center;verticalAlign=middle;resizable=0;points=[];autosize=1;strokeColor=none;fillColor=none;" parent="1" vertex="1">
          <mxGeometry x="149.5" y="115" width="90" height="40" as="geometry" />
        </mxCell>
        <mxCell id="er851UC71g-c0nVrdtV7-7" value="" style="image;aspect=fixed;perimeter=ellipsePerimeter;html=1;align=center;shadow=0;dashed=0;spacingTop=3;image=img/lib/active_directory/windows_server_2.svg;" parent="1" vertex="1">
          <mxGeometry x="310" y="480" width="40" height="50" as="geometry" />
        </mxCell>
        <mxCell id="er851UC71g-c0nVrdtV7-8" value="AD DS + DNS + DHCP&lt;br&gt;" style="text;html=1;align=center;verticalAlign=middle;resizable=0;points=[];autosize=1;strokeColor=none;fillColor=none;" parent="1" vertex="1">
          <mxGeometry x="250" y="530" width="150" height="30" as="geometry" />
        </mxCell>
        <mxCell id="er851UC71g-c0nVrdtV7-11" style="edgeStyle=orthogonalEdgeStyle;rounded=0;orthogonalLoop=1;jettySize=auto;html=1;entryX=0.5;entryY=0;entryDx=0;entryDy=0;" parent="1" source="er851UC71g-c0nVrdtV7-9" target="er851UC71g-c0nVrdtV7-7" edge="1">
          <mxGeometry relative="1" as="geometry">
            <Array as="points">
              <mxPoint x="330" y="430" />
              <mxPoint x="330" y="430" />
            </Array>
          </mxGeometry>
        </mxCell>
        <mxCell id="er851UC71g-c0nVrdtV7-27" style="edgeStyle=orthogonalEdgeStyle;rounded=0;orthogonalLoop=1;jettySize=auto;html=1;exitX=0.75;exitY=1;exitDx=0;exitDy=0;entryX=0.5;entryY=0;entryDx=0;entryDy=0;" parent="1" source="er851UC71g-c0nVrdtV7-9" target="er851UC71g-c0nVrdtV7-22" edge="1">
          <mxGeometry relative="1" as="geometry">
            <Array as="points">
              <mxPoint x="349" y="400" />
              <mxPoint x="543" y="400" />
            </Array>
          </mxGeometry>
        </mxCell>
        <mxCell id="NEBlF3I7ez4M1kG7c2lx-2" style="edgeStyle=orthogonalEdgeStyle;rounded=0;orthogonalLoop=1;jettySize=auto;html=1;exitX=0;exitY=1;exitDx=0;exitDy=0;entryX=0.5;entryY=0;entryDx=0;entryDy=0;" parent="1" source="er851UC71g-c0nVrdtV7-9" target="fWp4V6kTdG-GsxBKZvSA-1" edge="1">
          <mxGeometry relative="1" as="geometry">
            <Array as="points">
              <mxPoint x="280" y="380" />
              <mxPoint x="280" y="490" />
              <mxPoint x="-85" y="490" />
            </Array>
          </mxGeometry>
        </mxCell>
        <mxCell id="er851UC71g-c0nVrdtV7-9" value="" style="image;html=1;image=img/lib/clip_art/networking/Switch_128x128.png" parent="1" vertex="1">
          <mxGeometry x="304" y="330" width="60" height="50" as="geometry" />
        </mxCell>
        <mxCell id="er851UC71g-c0nVrdtV7-13" value="&lt;font color=&quot;#ff1900&quot;&gt;WAN : NAT en fixe&lt;/font&gt;" style="text;html=1;align=center;verticalAlign=middle;resizable=0;points=[];autosize=1;strokeColor=none;fillColor=none;" parent="1" vertex="1">
          <mxGeometry x="220" y="230" width="120" height="30" as="geometry" />
        </mxCell>
        <mxCell id="er851UC71g-c0nVrdtV7-14" value="" style="image;aspect=fixed;perimeter=ellipsePerimeter;html=1;align=center;shadow=0;dashed=0;spacingTop=3;image=img/lib/active_directory/windows_server_2.svg;" parent="1" vertex="1">
          <mxGeometry x="30.5" y="310" width="40" height="50" as="geometry" />
        </mxCell>
        <mxCell id="er851UC71g-c0nVrdtV7-16" value="Serveur web IIS" style="text;html=1;align=center;verticalAlign=middle;resizable=0;points=[];autosize=1;strokeColor=none;fillColor=none;" parent="1" vertex="1">
          <mxGeometry x="-4.5" y="280" width="110" height="30" as="geometry" />
        </mxCell>
        <mxCell id="er851UC71g-c0nVrdtV7-17" value="&lt;div style=&quot;text-align: left;&quot;&gt;&lt;span style=&quot;background-color: initial;&quot;&gt;IP :192.168.2.11&lt;/span&gt;&lt;/div&gt;Paserelle : 192.168.2.1&lt;br&gt;DNS : 192.168.168.10" style="text;html=1;align=center;verticalAlign=middle;resizable=0;points=[];autosize=1;strokeColor=none;fillColor=none;" parent="1" vertex="1">
          <mxGeometry x="-19.5" y="365" width="150" height="60" as="geometry" />
        </mxCell>
        <mxCell id="er851UC71g-c0nVrdtV7-19" value="&lt;font color=&quot;#ff2908&quot;&gt;DMZ (abstergo-dmz)&amp;nbsp;&lt;br&gt;IPv4 : 192.168.2.1&amp;nbsp;&lt;/font&gt;" style="text;html=1;align=left;verticalAlign=middle;resizable=0;points=[];autosize=1;strokeColor=none;fillColor=none;" parent="1" vertex="1">
          <mxGeometry x="170" y="310" width="140" height="40" as="geometry" />
        </mxCell>
        <mxCell id="er851UC71g-c0nVrdtV7-20" style="edgeStyle=orthogonalEdgeStyle;rounded=0;orthogonalLoop=1;jettySize=auto;html=1;entryX=1.012;entryY=0.559;entryDx=0;entryDy=0;entryPerimeter=0;" parent="1" source="er851UC71g-c0nVrdtV7-9" target="er851UC71g-c0nVrdtV7-15" edge="1">
          <mxGeometry relative="1" as="geometry" />
        </mxCell>
        <mxCell id="er851UC71g-c0nVrdtV7-21" value="IP : 192.168.168.10&lt;br&gt;Paserelle : 192.168.168.1&lt;br&gt;DNS : 192.168.168.10&lt;br&gt;&amp;nbsp; &amp;nbsp; &amp;nbsp; &amp;nbsp; &amp;nbsp; &amp;nbsp;redirection -&amp;gt; IP DNS externe&lt;br&gt;&amp;nbsp; &amp;nbsp; &amp;nbsp; &amp;nbsp; &amp;nbsp; &amp;nbsp; &amp;nbsp; &amp;nbsp; &amp;nbsp; &amp;nbsp; &amp;nbsp; &amp;nbsp; &amp;nbsp; &amp;nbsp; &amp;nbsp; &amp;nbsp; &amp;nbsp;(ex: DNS de l&#39;Ã©cole)&lt;br&gt;&lt;br&gt;DHCP (Etendue 1) :&lt;br&gt;192.168.168.11 - 192.168.168.100" style="text;html=1;align=left;verticalAlign=middle;resizable=0;points=[];autosize=1;strokeColor=none;fillColor=none;" parent="1" vertex="1">
          <mxGeometry x="210" y="545" width="240" height="130" as="geometry" />
        </mxCell>
        <mxCell id="er851UC71g-c0nVrdtV7-22" value="" style="image;aspect=fixed;perimeter=ellipsePerimeter;html=1;align=center;shadow=0;dashed=0;spacingTop=3;image=img/lib/active_directory/laptop_client.svg;" parent="1" vertex="1">
          <mxGeometry x="520" y="520" width="45" height="50" as="geometry" />
        </mxCell>
        <mxCell id="er851UC71g-c0nVrdtV7-24" value="Windows 10 pro&lt;br&gt;&lt;br&gt;IP : Automatique&lt;br&gt;DNS : Automatique" style="text;html=1;align=center;verticalAlign=middle;resizable=0;points=[];autosize=1;strokeColor=none;fillColor=none;" parent="1" vertex="1">
          <mxGeometry x="477.5" y="575" width="130" height="70" as="geometry" />
        </mxCell>
        <mxCell id="er851UC71g-c0nVrdtV7-29" value="&lt;font color=&quot;#ff1900&quot;&gt;&lt;span style=&quot;font-family: Helvetica; font-size: 11px; font-style: normal; font-variant-ligatures: normal; font-variant-caps: normal; font-weight: 400; letter-spacing: normal; orphans: 2; text-align: center; text-indent: 0px; text-transform: none; widows: 2; word-spacing: 0px; -webkit-text-stroke-width: 0px; background-color: rgb(255, 255, 255); text-decoration-thickness: initial; text-decoration-style: initial; text-decoration-color: initial; float: none; display: inline !important;&quot;&gt;LAN (abstergo-lan)&lt;/span&gt;&lt;br style=&quot;border-color: var(--border-color); font-family: Helvetica; font-style: normal; font-variant-ligatures: normal; font-variant-caps: normal; font-weight: 400; letter-spacing: normal; orphans: 2; text-indent: 0px; text-transform: none; widows: 2; word-spacing: 0px; -webkit-text-stroke-width: 0px; text-decoration-thickness: initial; text-decoration-style: initial; text-decoration-color: initial; font-size: 12px; text-align: left; background-color: rgb(251, 251, 251);&quot;&gt;&lt;span style=&quot;border-color: var(--border-color); font-family: Helvetica; font-style: normal; font-variant-ligatures: normal; font-variant-caps: normal; font-weight: 400; letter-spacing: normal; orphans: 2; text-indent: 0px; text-transform: none; widows: 2; word-spacing: 0px; -webkit-text-stroke-width: 0px; text-decoration-thickness: initial; text-decoration-style: initial; text-decoration-color: initial; font-size: 12px; text-align: left; background-color: rgb(251, 251, 251);&quot;&gt;192.168.168.1&lt;/span&gt;&lt;/font&gt;" style="text;whiteSpace=wrap;html=1;" parent="1" vertex="1">
          <mxGeometry x="355" y="410" width="130" height="50" as="geometry" />
        </mxCell>
        <mxCell id="er851UC71g-c0nVrdtV7-40" style="edgeStyle=orthogonalEdgeStyle;rounded=0;orthogonalLoop=1;jettySize=auto;html=1;entryX=0;entryY=0.5;entryDx=0;entryDy=0;endArrow=none;endFill=0;" parent="1" source="er851UC71g-c0nVrdtV7-30" target="er851UC71g-c0nVrdtV7-39" edge="1">
          <mxGeometry relative="1" as="geometry" />
        </mxCell>
        <mxCell id="er851UC71g-c0nVrdtV7-30" value="" style="sketch=0;points=[[0.5,0,0],[1,0.5,0],[0.5,1,0],[0,0.5,0],[0.145,0.145,0],[0.8555,0.145,0],[0.855,0.8555,0],[0.145,0.855,0]];verticalLabelPosition=bottom;html=1;verticalAlign=top;aspect=fixed;align=center;pointerEvents=1;shape=mxgraph.cisco19.rect;prIcon=router_with_firewall;fillColor=#FAFAFA;strokeColor=#005073;" parent="1" vertex="1">
          <mxGeometry x="710" y="215" width="50" height="50" as="geometry" />
        </mxCell>
        <mxCell id="er851UC71g-c0nVrdtV7-31" value="Pfsense2 : Routeur / Firewall" style="text;html=1;align=center;verticalAlign=middle;resizable=0;points=[];autosize=1;strokeColor=none;fillColor=none;" parent="1" vertex="1">
          <mxGeometry x="640" y="177" width="180" height="30" as="geometry" />
        </mxCell>
        <mxCell id="er851UC71g-c0nVrdtV7-32" value="" style="outlineConnect=0;dashed=0;verticalLabelPosition=bottom;verticalAlign=top;align=center;html=1;shape=mxgraph.aws3.internet_3;fillColor=#D2D3D3;gradientColor=none;" parent="1" vertex="1">
          <mxGeometry x="900" y="165" width="79.5" height="54" as="geometry" />
        </mxCell>
        <mxCell id="er851UC71g-c0nVrdtV7-33" style="edgeStyle=orthogonalEdgeStyle;rounded=0;orthogonalLoop=1;jettySize=auto;html=1;entryX=1;entryY=0.5;entryDx=0;entryDy=0;entryPerimeter=0;" parent="1" source="er851UC71g-c0nVrdtV7-32" target="er851UC71g-c0nVrdtV7-30" edge="1">
          <mxGeometry relative="1" as="geometry">
            <Array as="points">
              <mxPoint x="940" y="240" />
            </Array>
          </mxGeometry>
        </mxCell>
        <mxCell id="er851UC71g-c0nVrdtV7-34" value="IP externe&lt;br&gt;DNS externe" style="text;html=1;align=center;verticalAlign=middle;resizable=0;points=[];autosize=1;strokeColor=none;fillColor=none;" parent="1" vertex="1">
          <mxGeometry x="889.5" y="115" width="90" height="40" as="geometry" />
        </mxCell>
        <mxCell id="er851UC71g-c0nVrdtV7-37" value="&lt;font color=&quot;#ff1900&quot;&gt;WAN : NAT en DHCP4&lt;/font&gt;" style="text;html=1;align=center;verticalAlign=middle;resizable=0;points=[];autosize=1;strokeColor=none;fillColor=none;" parent="1" vertex="1">
          <mxGeometry x="780" y="235" width="140" height="30" as="geometry" />
        </mxCell>
        <mxCell id="er851UC71g-c0nVrdtV7-45" style="edgeStyle=orthogonalEdgeStyle;rounded=0;orthogonalLoop=1;jettySize=auto;html=1;entryX=0.5;entryY=0;entryDx=0;entryDy=0;" parent="1" source="er851UC71g-c0nVrdtV7-39" target="er851UC71g-c0nVrdtV7-41" edge="1">
          <mxGeometry relative="1" as="geometry">
            <Array as="points">
              <mxPoint x="940" y="365" />
              <mxPoint x="940" y="460" />
            </Array>
          </mxGeometry>
        </mxCell>
        <mxCell id="er851UC71g-c0nVrdtV7-49" style="edgeStyle=orthogonalEdgeStyle;rounded=0;orthogonalLoop=1;jettySize=auto;html=1;entryX=1;entryY=0.5;entryDx=0;entryDy=0;" parent="1" source="er851UC71g-c0nVrdtV7-39" target="er851UC71g-c0nVrdtV7-47" edge="1">
          <mxGeometry relative="1" as="geometry">
            <Array as="points">
              <mxPoint x="805" y="545" />
            </Array>
          </mxGeometry>
        </mxCell>
        <mxCell id="er851UC71g-c0nVrdtV7-39" value="" style="image;html=1;image=img/lib/clip_art/networking/Switch_128x128.png" parent="1" vertex="1">
          <mxGeometry x="760" y="340" width="60" height="50" as="geometry" />
        </mxCell>
        <mxCell id="er851UC71g-c0nVrdtV7-41" value="" style="image;aspect=fixed;perimeter=ellipsePerimeter;html=1;align=center;shadow=0;dashed=0;spacingTop=3;image=img/lib/active_directory/windows_server_2.svg;" parent="1" vertex="1">
          <mxGeometry x="900" y="460" width="40" height="50" as="geometry" />
        </mxCell>
        <mxCell id="er851UC71g-c0nVrdtV7-42" value="AD DS + DNS + DHCP&lt;br&gt;" style="text;html=1;align=center;verticalAlign=middle;resizable=0;points=[];autosize=1;strokeColor=none;fillColor=none;" parent="1" vertex="1">
          <mxGeometry x="860" y="510" width="150" height="30" as="geometry" />
        </mxCell>
        <mxCell id="er851UC71g-c0nVrdtV7-43" value="IP : 192.168.200.10&lt;br&gt;Paserelle : 192.168.200.1&lt;br&gt;DNS : 192.168.200.10&lt;br&gt;&amp;nbsp; &amp;nbsp; &amp;nbsp; &amp;nbsp; &amp;nbsp; &amp;nbsp;redirection -&amp;gt; IP DNS externe&lt;br&gt;&amp;nbsp; &amp;nbsp; &amp;nbsp; &amp;nbsp; &amp;nbsp; &amp;nbsp; &amp;nbsp; &amp;nbsp; &amp;nbsp; &amp;nbsp; &amp;nbsp; &amp;nbsp; &amp;nbsp; &amp;nbsp; &amp;nbsp; &amp;nbsp; &amp;nbsp;(ex: DNS de l&#39;Ã©cole)&lt;br&gt;&lt;br&gt;DHCP (Etendue 1) :&lt;br&gt;192.168.200.50 - 192.168.200.100" style="text;html=1;align=left;verticalAlign=middle;resizable=0;points=[];autosize=1;strokeColor=none;fillColor=none;" parent="1" vertex="1">
          <mxGeometry x="870" y="530" width="240" height="130" as="geometry" />
        </mxCell>
        <mxCell id="er851UC71g-c0nVrdtV7-44" value="&lt;font color=&quot;#ff1900&quot;&gt;&lt;span style=&quot;font-family: Helvetica; font-size: 11px; font-style: normal; font-variant-ligatures: normal; font-variant-caps: normal; font-weight: 400; letter-spacing: normal; orphans: 2; text-align: center; text-indent: 0px; text-transform: none; widows: 2; word-spacing: 0px; -webkit-text-stroke-width: 0px; background-color: rgb(255, 255, 255); text-decoration-thickness: initial; text-decoration-style: initial; text-decoration-color: initial; float: none; display: inline !important;&quot;&gt;LAN (abstergo2-lan)&lt;/span&gt;&lt;br style=&quot;border-color: var(--border-color); font-family: Helvetica; font-style: normal; font-variant-ligatures: normal; font-variant-caps: normal; font-weight: 400; letter-spacing: normal; orphans: 2; text-indent: 0px; text-transform: none; widows: 2; word-spacing: 0px; -webkit-text-stroke-width: 0px; text-decoration-thickness: initial; text-decoration-style: initial; text-decoration-color: initial; font-size: 12px; text-align: left; background-color: rgb(251, 251, 251);&quot;&gt;&lt;span style=&quot;border-color: var(--border-color); font-family: Helvetica; font-style: normal; font-variant-ligatures: normal; font-variant-caps: normal; font-weight: 400; letter-spacing: normal; orphans: 2; text-indent: 0px; text-transform: none; widows: 2; word-spacing: 0px; -webkit-text-stroke-width: 0px; text-decoration-thickness: initial; text-decoration-style: initial; text-decoration-color: initial; font-size: 12px; text-align: left; background-color: rgb(251, 251, 251);&quot;&gt;192.168.200.1&lt;/span&gt;&lt;/font&gt;" style="text;whiteSpace=wrap;html=1;" parent="1" vertex="1">
          <mxGeometry x="820" y="380" width="130" height="50" as="geometry" />
        </mxCell>
        <mxCell id="er851UC71g-c0nVrdtV7-47" value="" style="image;aspect=fixed;perimeter=ellipsePerimeter;html=1;align=center;shadow=0;dashed=0;spacingTop=3;image=img/lib/active_directory/laptop_client.svg;" parent="1" vertex="1">
          <mxGeometry x="730" y="520" width="45" height="50" as="geometry" />
        </mxCell>
        <mxCell id="er851UC71g-c0nVrdtV7-48" value="Windows 10 pro&lt;br&gt;&lt;br&gt;IP : Automatique&lt;br&gt;DNS : Automatique" style="text;html=1;align=center;verticalAlign=middle;resizable=0;points=[];autosize=1;strokeColor=none;fillColor=none;" parent="1" vertex="1">
          <mxGeometry x="697" y="575" width="130" height="70" as="geometry" />
        </mxCell>
        <mxCell id="er851UC71g-c0nVrdtV7-50" style="edgeStyle=orthogonalEdgeStyle;rounded=0;orthogonalLoop=1;jettySize=auto;html=1;entryX=0;entryY=0.5;entryDx=0;entryDy=0;entryPerimeter=0;endArrow=none;endFill=0;shape=link;" parent="1" source="er851UC71g-c0nVrdtV7-1" target="er851UC71g-c0nVrdtV7-30" edge="1">
          <mxGeometry relative="1" as="geometry">
            <Array as="points">
              <mxPoint x="530" y="240" />
              <mxPoint x="530" y="240" />
            </Array>
          </mxGeometry>
        </mxCell>
        <mxCell id="er851UC71g-c0nVrdtV7-52" value="VPN &lt;br&gt;IPsec" style="text;html=1;align=center;verticalAlign=middle;resizable=0;points=[];autosize=1;strokeColor=none;fillColor=none;" parent="1" vertex="1">
          <mxGeometry x="550" y="195" width="50" height="40" as="geometry" />
        </mxCell>
        <mxCell id="fWp4V6kTdG-GsxBKZvSA-1" value="&lt;font style=&quot;font-size: 20px;&quot;&gt;Debian&lt;/font&gt;" style="rounded=0;whiteSpace=wrap;html=1;verticalAlign=top;" parent="1" vertex="1">
          <mxGeometry x="-300" y="540" width="430.5" height="250" as="geometry" />
        </mxCell>
        <mxCell id="yVtWUF_JaeqVQCscmgx5-1" value="10.0.2.10" style="text;html=1;strokeColor=none;fillColor=none;align=center;verticalAlign=middle;whiteSpace=wrap;rounded=0;" vertex="1" parent="1">
          <mxGeometry x="295" y="200" width="60" height="30" as="geometry" />
        </mxCell>
        <mxCell id="yVtWUF_JaeqVQCscmgx5-2" value="10.0.2.20" style="text;html=1;strokeColor=none;fillColor=none;align=center;verticalAlign=middle;whiteSpace=wrap;rounded=0;" vertex="1" parent="1">
          <mxGeometry x="775" y="210" width="60" height="30" as="geometry" />
        </mxCell>
      </root>
    </mxGraphModel>
  </diagram>
</mxfile>
